<?xml version="1.0" standalone="no"?>
<!DOCTYPE svg PUBLIC "-//W3C//DTD SVG 20010904//EN"
 "http://www.w3.org/TR/2001/REC-SVG-20010904/DTD/svg10.dtd">
<svg version="1.0" xmlns="http://www.w3.org/2000/svg"
 width="250.000000pt" height="250.000000pt" viewBox="0 0 250.000000 250.000000"
 preserveAspectRatio="xMidYMid meet">

<g transform="translate(0.000000,250.000000) scale(0.100000,-0.100000)"
fill="#000000" stroke="none">
<path d="M1085 2373 c-61 -9 -189 -45 -263 -74 -361 -143 -636 -492 -692 -877
-19 -128 -8 -335 23 -455 30 -113 95 -256 164 -359 61 -92 198 -229 291 -291
143 -95 333 -169 492 -190 40 -6 36 -3 -31 21 -93 34 -159 76 -221 139 -175
179 -212 445 -95 668 44 83 146 183 232 227 93 48 129 57 266 68 182 15 295
63 406 176 174 177 206 459 77 682 -68 118 -229 234 -362 261 -50 10 -223 13
-287 4z m269 -417 c46 -35 68 -78 69 -135 2 -127 -120 -212 -238 -166 -96 36
-138 156 -87 250 45 85 177 111 256 51z"/>
<path d="M1173 841 c-59 -27 -96 -86 -96 -154 0 -64 21 -107 70 -144 31 -24
46 -28 103 -28 57 0 72 4 103 28 20 15 42 38 48 50 50 92 14 207 -75 248 -52
24 -100 24 -153 0z"/>
</g>
</svg>
